#N canvas -386 116 1920 966 12;
#X obj 729 30 hsl 162 19 0 24 0 0 empty empty Time -2 -10 0 12 #fcfcfc #000000 #000000 0 1;
#X floatatom 726 54 5 0 0 0 - - - 0;
#X floatatom 764 128 5 0 0 0 - - - 0;
#X obj 839 79 > 17;
#X floatatom 839 264 5 0 0 1 Night - - 0;
#X floatatom 726 229 5 0 0 1 Morning - - 0;
#X obj 726 79 < 10;
#X obj 764 79 > 10;
#X obj 801 79 < 17;
#X floatatom 801 128 5 0 0 0 - - - 0;
#X obj 777 197 == 2;
#X obj 777 150 +;
#X floatatom 777 173 5 0 0 0 - - - 0;
#X floatatom 777 246 5 0 0 1 Day - - 0;
#X text 683 81 Logic;
#X obj 726 247 tgl 19 0 empty empty empty 0 -10 0 12 #fcfcfc #000000 #000000 0 1;
#X obj 777 265 tgl 19 0 empty empty empty 0 -10 0 12 #fcfcfc #000000 #000000 0 1;
#X obj 839 283 tgl 19 0 empty empty empty 0 -10 0 12 #fcfcfc #000000 #000000 0 1;
#X floatatom 726 362 5 0 0 0 - - - 0;
#X floatatom 777 315 5 0 0 0 - - - 0;
#X floatatom 839 314 5 0 0 0 - - - 0;
#X obj 710 575 *~;
#X obj 740 574 *~;
#X obj 710 527 readsf~ 2;
#X obj 680 32 tgl 19 0 empty empty empty 0 -10 0 12 #fcfcfc #000000 #000000 0 1;
#X msg 710 501 open BackgroundtalkMorning.wav;
#X floatatom 748 551 5 0 0 1 Vol - - 0;
#X obj 710 720 *~;
#X obj 740 719 *~;
#X obj 710 672 readsf~ 2;
#X floatatom 748 696 5 0 0 1 Vol - - 0;
#X msg 710 646 open SeagullsMorning.wav;
#X obj 185 68 random 5;
#X obj 947 98 bng 19 250 50 0 empty empty empty 0 -10 0 12 #fcfcfc #000000 #000000;
#X obj 968 98 bng 19 250 50 0 empty empty empty 0 -10 0 12 #fcfcfc #000000 #000000;
#X obj 990 98 bng 19 250 50 0 empty empty empty 0 -10 0 12 #fcfcfc #000000 #000000;
#X obj 1012 98 bng 19 250 50 0 empty empty empty 0 -10 0 12 #fcfcfc #000000 #000000;
#X obj 1034 98 bng 19 250 50 0 empty empty empty 0 -10 0 12 #fcfcfc #000000 #000000;
#X floatatom 947 50 5 0 0 1 - - - 0;
#X obj 947 242 *~;
#X obj 977 241 *~;
#X obj 947 194 readsf~ 2;
#X msg 947 123 open Wave.wav;
#X floatatom 985 218 5 0 0 1 Vol - - 0;
#X msg 1042 123 open Wave-001.wav;
#X msg 1165 123 open Wave-002.wav;
#X msg 1288 123 open Wave-003.wav;
#X msg 1411 123 open Wave-004.wav;
#X obj 947 25 r num;
#X obj 185 93 s num;
#X obj 947 74 select 0 1 2 3 4;
#X obj 28 15 r time;
#X floatatom 28 34 5 0 0 1 - - - 0;
#X obj 726 433 s time;
#X floatatom 777 362 5 0 0 1 - - - 0;
#X floatatom 839 361 5 0 0 1 - - - 0;
#X obj 777 337 * 2;
#X obj 839 336 * 3;
#X obj 726 385 +;
#X obj 726 409 +;
#X obj 28 52 == 1;
#X obj 92 52 == 3;
#X obj 60 52 == 2;
#X obj 28 90 +;
#X obj 28 109 +;
#X obj 28 128 s waveVol;
#X obj 1020 199 r waveVol;
#X obj 680 54 s on;
#X obj 185 16 r on;
#X obj 277 87 s play;
#X obj 947 149 r play;
#X obj 277 14 r on;
#X obj 710 474 r on;
#X obj 660 501 r play;
#X msg 947 170 start;
#X msg 660 525 start;
#X obj 277 39 delay 1000;
#X obj 277 63 metro 3000;
#X obj 185 43 metro 3000;
#X text 420 32 Turn on this toggle to start playing;
#X text 405 10 Move the time slider to get different effects;
#X obj 29 155 r time;
#X floatatom 29 174 5 0 0 1 - - - 0;
#X obj 29 192 == 1;
#X obj 93 192 == 3;
#X obj 61 192 == 2;
#X obj 29 211 * 0.5;
#X obj 68 211 * 0.8;
#X obj 107 211 * 0.8;
#X obj 29 230 +;
#X obj 29 249 +;
#X obj 29 268 s talkVol;
#X obj 781 527 r talkVol;
#X obj 29 294 r time;
#X floatatom 29 313 5 0 0 1 - - - 0;
#X obj 29 331 == 1;
#X obj 93 331 == 3;
#X obj 61 331 == 2;
#X obj 68 350 * 0.8;
#X obj 29 369 +;
#X obj 29 388 +;
#X obj 29 407 s SeagullVol;
#X obj 783 671 r SeagullVol;
#X obj 659 647 r play;
#X msg 659 671 start;
#X obj 710 623 r on;
#X obj 29 350 * 0.8;
#X obj 107 350 * 0.4;
#X obj 948 430 bng 19 250 50 0 empty empty empty 0 -10 0 12 #fcfcfc #000000 #000000;
#X obj 969 430 bng 19 250 50 0 empty empty empty 0 -10 0 12 #fcfcfc #000000 #000000;
#X obj 991 430 bng 19 250 50 0 empty empty empty 0 -10 0 12 #fcfcfc #000000 #000000;
#X obj 1013 430 bng 19 250 50 0 empty empty empty 0 -10 0 12 #fcfcfc #000000 #000000;
#X obj 1035 430 bng 19 250 50 0 empty empty empty 0 -10 0 12 #fcfcfc #000000 #000000;
#X floatatom 948 343 5 0 0 1 - - - 0;
#X obj 948 616 *~;
#X obj 978 615 *~;
#X obj 948 568 readsf~ 2;
#X floatatom 986 592 5 0 0 1 Vol - - 0;
#X obj 948 406 select 0 1 2 3 4;
#X msg 948 544 start;
#X obj 31 431 r time;
#X floatatom 31 450 5 0 0 1 - - - 0;
#X obj 31 468 == 1;
#X obj 95 468 == 3;
#X obj 63 468 == 2;
#X obj 70 487 * 0.8;
#X obj 31 506 +;
#X obj 31 525 +;
#X obj 31 544 s StepVol;
#X obj 31 487 * 0.3;
#X obj 109 487 * 0.3;
#X obj 1021 573 r StepVol;
#X msg 948 455 open FootStep1.wav;
#X msg 1078 455 open FootStep2.wav;
#X msg 1208 455 open FootStep3.wav;
#X msg 1338 455 open FootStep4.wav;
#X msg 1468 455 open FootStep5.wav;
#X obj 414 147 dac~;
#X obj 947 265 s~ lw;
#X obj 984 265 s~ rw;
#X obj 948 641 s~ lf;
#X obj 985 641 s~ rf;
#X obj 388 112 r~ lw;
#X obj 453 111 r~ rw;
#X obj 388 86 r~ lf;
#X obj 453 85 r~ rf;
#X obj 948 385 random 5;
#X obj 28 71 * 0.5;
#X obj 67 71 * 0.3;
#X obj 106 71 * 0.5;
#X obj 948 363 bng 19 250 50 0 empty empty empty 0 -10 0 12 #fcfcfc #000000 #000000;
#X obj 710 747 s~ ls;
#X obj 747 747 s~ rs;
#X obj 186 174 random 5;
#X obj 186 122 r on;
#X obj 186 199 s Step;
#X obj 948 321 r Step;
#X obj 948 497 r Step;
#X obj 948 521 delay 100;
#X obj 453 60 r~ rs;
#X obj 388 61 r~ ls;
#X obj 186 149 metro 1000;
#X obj 1002 496 random 5;
#X connect 0 0 1 0;
#X connect 1 0 3 0;
#X connect 1 0 6 0;
#X connect 1 0 7 0;
#X connect 1 0 8 0;
#X connect 2 0 11 0;
#X connect 3 0 4 0;
#X connect 4 0 17 0;
#X connect 5 0 15 0;
#X connect 6 0 5 0;
#X connect 7 0 2 0;
#X connect 8 0 9 0;
#X connect 9 0 11 1;
#X connect 10 0 13 0;
#X connect 11 0 12 0;
#X connect 12 0 10 0;
#X connect 13 0 16 0;
#X connect 15 0 18 0;
#X connect 16 0 19 0;
#X connect 17 0 20 0;
#X connect 18 0 58 0;
#X connect 19 0 56 0;
#X connect 20 0 57 0;
#X connect 23 0 21 0;
#X connect 23 1 22 0;
#X connect 24 0 67 0;
#X connect 25 0 23 0;
#X connect 26 0 22 1;
#X connect 26 0 21 1;
#X connect 27 0 151 0;
#X connect 28 0 152 0;
#X connect 29 0 27 0;
#X connect 29 1 28 0;
#X connect 30 0 28 1;
#X connect 30 0 27 1;
#X connect 31 0 29 0;
#X connect 32 0 49 0;
#X connect 33 0 42 0;
#X connect 34 0 44 0;
#X connect 35 0 45 0;
#X connect 36 0 46 0;
#X connect 37 0 47 0;
#X connect 38 0 50 0;
#X connect 39 0 138 0;
#X connect 40 0 139 0;
#X connect 41 0 39 0;
#X connect 41 1 40 0;
#X connect 42 0 41 0;
#X connect 43 0 40 1;
#X connect 43 0 39 1;
#X connect 44 0 41 0;
#X connect 45 0 41 0;
#X connect 46 0 41 0;
#X connect 47 0 41 0;
#X connect 48 0 38 0;
#X connect 50 0 33 0;
#X connect 50 1 34 0;
#X connect 50 2 35 0;
#X connect 50 3 36 0;
#X connect 50 4 37 0;
#X connect 51 0 52 0;
#X connect 52 0 60 0;
#X connect 52 0 62 0;
#X connect 52 0 61 0;
#X connect 54 0 58 1;
#X connect 55 0 59 1;
#X connect 56 0 54 0;
#X connect 57 0 55 0;
#X connect 58 0 59 0;
#X connect 59 0 53 0;
#X connect 60 0 147 0;
#X connect 61 0 149 0;
#X connect 62 0 148 0;
#X connect 63 0 64 0;
#X connect 64 0 65 0;
#X connect 66 0 43 0;
#X connect 68 0 78 0;
#X connect 70 0 74 0;
#X connect 71 0 76 0;
#X connect 72 0 25 0;
#X connect 73 0 75 0;
#X connect 74 0 41 0;
#X connect 75 0 23 0;
#X connect 76 0 77 0;
#X connect 77 0 69 0;
#X connect 78 0 32 0;
#X connect 81 0 82 0;
#X connect 82 0 83 0;
#X connect 82 0 85 0;
#X connect 82 0 84 0;
#X connect 83 0 86 0;
#X connect 84 0 88 0;
#X connect 85 0 87 0;
#X connect 86 0 89 0;
#X connect 87 0 89 1;
#X connect 88 0 90 1;
#X connect 89 0 90 0;
#X connect 90 0 91 0;
#X connect 92 0 26 0;
#X connect 93 0 94 0;
#X connect 94 0 95 0;
#X connect 94 0 97 0;
#X connect 94 0 96 0;
#X connect 95 0 106 0;
#X connect 96 0 107 0;
#X connect 97 0 98 0;
#X connect 98 0 99 1;
#X connect 99 0 100 0;
#X connect 100 0 101 0;
#X connect 102 0 30 0;
#X connect 103 0 104 0;
#X connect 104 0 29 0;
#X connect 105 0 31 0;
#X connect 106 0 99 0;
#X connect 107 0 100 1;
#X connect 108 0 132 0;
#X connect 109 0 133 0;
#X connect 110 0 134 0;
#X connect 111 0 135 0;
#X connect 112 0 136 0;
#X connect 113 0 150 0;
#X connect 114 0 140 0;
#X connect 115 0 141 0;
#X connect 116 0 114 0;
#X connect 116 1 115 0;
#X connect 117 0 115 1;
#X connect 117 0 114 1;
#X connect 118 0 108 0;
#X connect 118 1 109 0;
#X connect 118 2 110 0;
#X connect 118 3 111 0;
#X connect 118 4 112 0;
#X connect 119 0 116 0;
#X connect 120 0 121 0;
#X connect 121 0 122 0;
#X connect 121 0 124 0;
#X connect 121 0 123 0;
#X connect 122 0 129 0;
#X connect 123 0 130 0;
#X connect 124 0 125 0;
#X connect 125 0 126 1;
#X connect 126 0 127 0;
#X connect 127 0 128 0;
#X connect 129 0 126 0;
#X connect 130 0 127 1;
#X connect 131 0 117 0;
#X connect 132 0 116 0;
#X connect 133 0 116 0;
#X connect 134 0 116 0;
#X connect 135 0 116 0;
#X connect 136 0 116 0;
#X connect 142 0 137 0;
#X connect 143 0 137 1;
#X connect 144 0 137 0;
#X connect 145 0 137 1;
#X connect 146 0 118 0;
#X connect 147 0 63 0;
#X connect 148 0 63 1;
#X connect 149 0 64 1;
#X connect 150 0 146 0;
#X connect 153 0 155 0;
#X connect 154 0 161 0;
#X connect 156 0 113 0;
#X connect 157 0 158 0;
#X connect 158 0 119 0;
#X connect 159 0 137 1;
#X connect 160 0 137 0;
#X connect 161 0 153 0;
