#N canvas -179 106 2560 1357 12;
#X obj 251 85 hsl 162 19 0 24 0 0 empty empty Time -2 -10 0 12 #fcfcfc #000000 #000000 0 1;
#X floatatom 249 107 5 0 0 0 - - - 0;
#X floatatom 287 181 5 0 0 0 - - - 0;
#X obj 362 132 > 17;
#X floatatom 362 317 5 0 0 1 Night - - 0;
#X floatatom 249 282 5 0 0 1 Morning - - 0;
#X obj 249 132 < 10;
#X obj 287 132 > 10;
#X obj 324 132 < 17;
#X floatatom 324 181 5 0 0 0 - - - 0;
#X obj 300 250 == 2;
#X obj 300 203 +;
#X floatatom 300 226 5 0 0 0 - - - 0;
#X floatatom 300 299 5 0 0 1 Day - - 0;
#X text 204 132 Logic;
#X obj 249 300 tgl 19 0 empty empty empty 0 -10 0 12 #fcfcfc #000000 #000000 0 1;
#X obj 300 318 tgl 19 0 empty empty empty 0 -10 0 12 #fcfcfc #000000 #000000 0 1;
#X obj 362 336 tgl 19 0 empty empty empty 0 -10 0 12 #fcfcfc #000000 #000000 0 1;
#X floatatom 249 415 5 0 0 0 - - - 0;
#X floatatom 300 368 5 0 0 0 - - - 0;
#X floatatom 362 367 5 0 0 0 - - - 0;
#X obj 203 84 tgl 19 0 empty empty empty 0 -10 0 12 #fcfcfc #000000 #000000 0 1;
#X obj 627 576 *~;
#X obj 657 575 *~;
#X obj 627 528 readsf~ 2;
#X floatatom 665 552 5 0 0 1 Vol - - 0;
#X msg 627 502 open SeagullsMorning.wav;
#X obj 881 100 bng 19 250 50 0 empty empty empty 0 -10 0 12 #fcfcfc #000000 #000000;
#X obj 902 100 bng 19 250 50 0 empty empty empty 0 -10 0 12 #fcfcfc #000000 #000000;
#X obj 924 100 bng 19 250 50 0 empty empty empty 0 -10 0 12 #fcfcfc #000000 #000000;
#X obj 946 100 bng 19 250 50 0 empty empty empty 0 -10 0 12 #fcfcfc #000000 #000000;
#X obj 968 100 bng 19 250 50 0 empty empty empty 0 -10 0 12 #fcfcfc #000000 #000000;
#X floatatom 881 52 5 0 0 1 - - - 0;
#X obj 881 244 *~;
#X obj 911 243 *~;
#X obj 881 196 readsf~ 2;
#X msg 881 125 open Wave.wav;
#X floatatom 919 220 5 0 0 1 Vol - - 0;
#X msg 976 125 open Wave-001.wav;
#X msg 1099 125 open Wave-002.wav;
#X msg 1222 125 open Wave-003.wav;
#X msg 1345 125 open Wave-004.wav;
#X obj 881 27 r num;
#X obj 249 594 s num;
#X obj 881 76 select 0 1 2 3 4;
#X obj 28 15 r time;
#X floatatom 28 34 5 0 0 1 - - - 0;
#X obj 249 486 s time;
#X floatatom 300 415 5 0 0 1 - - - 0;
#X floatatom 362 414 5 0 0 1 - - - 0;
#X obj 300 390 * 2;
#X obj 362 389 * 3;
#X obj 249 438 +;
#X obj 249 462 +;
#X obj 28 52 == 1;
#X obj 92 52 == 3;
#X obj 60 52 == 2;
#X obj 28 90 +;
#X obj 28 109 +;
#X obj 28 128 s waveVol;
#X obj 954 201 r waveVol;
#X obj 203 107 s on;
#X obj 249 517 r on;
#X obj 341 588 s play;
#X obj 341 515 r on;
#X msg 881 173 start;
#X obj 341 540 delay 1000;
#X obj 341 564 metro 3000;
#X obj 249 544 metro 3000;
#X text 186 33 Turn on this toggle to start playing;
#X text 171 11 Move the time slider to get different effects;
#X obj 29 155 r time;
#X floatatom 29 174 5 0 0 1 - - - 0;
#X obj 29 192 == 1;
#X obj 93 192 == 3;
#X obj 61 192 == 2;
#X obj 29 230 +;
#X obj 29 249 +;
#X obj 29 268 s talkVol;
#X obj 29 294 r time;
#X floatatom 29 313 5 0 0 1 - - - 0;
#X obj 29 331 == 1;
#X obj 93 331 == 3;
#X obj 61 331 == 2;
#X obj 68 350 * 0.8;
#X obj 29 369 +;
#X obj 29 388 +;
#X obj 29 407 s SeagullVol;
#X obj 700 527 r SeagullVol;
#X msg 576 527 start;
#X obj 627 451 r on;
#X obj 29 350 * 0.8;
#X obj 883 508 bng 19 250 50 0 empty empty empty 0 -10 0 12 #fcfcfc #000000 #000000;
#X obj 904 508 bng 19 250 50 0 empty empty empty 0 -10 0 12 #fcfcfc #000000 #000000;
#X obj 926 508 bng 19 250 50 0 empty empty empty 0 -10 0 12 #fcfcfc #000000 #000000;
#X obj 948 508 bng 19 250 50 0 empty empty empty 0 -10 0 12 #fcfcfc #000000 #000000;
#X obj 970 508 bng 19 250 50 0 empty empty empty 0 -10 0 12 #fcfcfc #000000 #000000;
#X floatatom 882 345 5 0 0 1 - - - 0;
#X obj 882 660 *~;
#X obj 912 659 *~;
#X obj 882 612 readsf~ 2;
#X floatatom 920 636 5 0 0 1 Vol - - 0;
#X obj 883 484 select 0 1 2 3 4;
#X msg 882 582 start;
#X obj 31 431 r time;
#X floatatom 31 450 5 0 0 1 - - - 0;
#X obj 31 468 == 1;
#X obj 95 468 == 3;
#X obj 63 468 == 2;
#X obj 31 506 +;
#X obj 31 525 +;
#X obj 31 544 s StepVol;
#X obj 955 617 r StepVol;
#X msg 883 533 open FootStep1.wav;
#X msg 1013 533 open FootStep2.wav;
#X msg 1143 533 open FootStep3.wav;
#X msg 1273 533 open FootStep4.wav;
#X msg 1403 533 open FootStep5.wav;
#X obj 881 267 s~ lw;
#X obj 918 267 s~ rw;
#X obj 882 685 s~ lf;
#X obj 919 685 s~ rf;
#X obj 237 882 r~ lw;
#X obj 302 881 r~ rw;
#X obj 237 856 r~ lf;
#X obj 302 855 r~ rf;
#X obj 883 463 random 5;
#X obj 28 71 * 0.5;
#X obj 67 71 * 0.3;
#X obj 106 71 * 0.5;
#X obj 883 441 bng 19 250 50 0 empty empty empty 0 -10 0 12 #fcfcfc #000000 #000000;
#X obj 627 603 s~ ls;
#X obj 664 603 s~ rs;
#X obj 250 623 r on;
#X obj 250 700 s Step;
#X obj 882 323 r Step;
#X obj 302 830 r~ rs;
#X obj 237 831 r~ ls;
#X obj 250 650 metro 1000;
#X obj 627 477 metro 63000;
#X obj 554 502 delay 100;
#X obj 630 1090 *~;
#X obj 660 1089 *~;
#X obj 630 1042 readsf~ 2;
#X floatatom 668 1066 5 0 0 1 Vol - - 0;
#X msg 579 1041 start;
#X obj 630 965 r on;
#X obj 557 1016 delay 100;
#X obj 627 756 *~;
#X obj 657 755 *~;
#X obj 627 708 readsf~ 2;
#X floatatom 665 732 5 0 0 1 Vol - - 0;
#X msg 576 707 start;
#X obj 627 631 r on;
#X obj 554 682 delay 100;
#X obj 627 155 *~;
#X obj 657 154 *~;
#X obj 627 107 readsf~ 2;
#X floatatom 665 131 5 0 0 1 Vol - - 0;
#X msg 576 106 start;
#X obj 627 30 r on;
#X obj 554 81 delay 100;
#X obj 339 618 r Step;
#X obj 339 767 metro 2000;
#X obj 339 743 tgl 19 0 empty empty empty 0 -10 0 12 #fcfcfc #000000 #000000 0 1;
#X obj 339 790 s Splay;
#X obj 630 991 metro 84000;
#X obj 627 657 metro 103000;
#X msg 627 682 open PartyMusicHellyea.wav;
#X msg 630 1016 open TalkDone.wav;
#X msg 627 81 open Wind.wav;
#X obj 627 56 metro 32000;
#X obj 628 1117 s~ lt;
#X obj 658 1117 s~ rt;
#X obj 627 783 s~ lp;
#X obj 664 783 s~ rp;
#X obj 627 182 s~ lwi;
#X obj 673 182 s~ rwi;
#X obj 235 905 r~ lwi;
#X obj 300 904 r~ rwi;
#X obj 236 928 r~ lp;
#X obj 301 927 r~ rp;
#X obj 237 955 r~ lt;
#X obj 302 954 r~ rt;
#X obj 238 978 r~ lb;
#X obj 303 977 r~ rb;
#X obj 703 1041 r talkVol;
#X obj 700 707 r musicVol;
#X obj 32 571 r time;
#X floatatom 32 590 5 0 0 1 - - - 0;
#X obj 32 608 == 1;
#X obj 96 608 == 3;
#X obj 64 608 == 2;
#X obj 32 646 +;
#X obj 32 665 +;
#X obj 32 684 s musicVol;
#X obj 700 106 r windVol;
#X obj 33 709 r time;
#X floatatom 33 728 5 0 0 1 - - - 0;
#X obj 33 746 == 1;
#X obj 97 746 == 3;
#X obj 65 746 == 2;
#X obj 33 784 +;
#X obj 33 803 +;
#X obj 33 765 * 0.3;
#X obj 33 822 s windVol;
#X obj 33 854 r time;
#X floatatom 33 873 5 0 0 1 - - - 0;
#X obj 33 891 == 1;
#X obj 97 891 == 3;
#X obj 65 891 == 2;
#X obj 33 929 +;
#X obj 33 948 +;
#X obj 33 967 s ballVol;
#X obj 627 395 *~;
#X obj 657 394 *~;
#X obj 627 347 readsf~ 2;
#X floatatom 665 371 5 0 0 1 Vol - - 0;
#X msg 576 346 start;
#X obj 627 205 r on;
#X obj 554 321 delay 100;
#X obj 627 422 s~ lb;
#X obj 664 422 s~ rb;
#X obj 700 346 r ballVol;
#X msg 627 321 open BeachBall.wav;
#X obj 627 231 metro 15000;
#X obj 111 910 * 0;
#X obj 107 211 * 0;
#X obj 29 211 * 0;
#X obj 71 627 * 0;
#X obj 32 627 * 0;
#X obj 72 765 * 0.3;
#X obj 33 910 * 0;
#X obj 72 910 * 0.5;
#X obj 69 211 * 0.3;
#X obj 110 627 * 0.7;
#X obj 111 765 * 1.4;
#X obj 339 672 bng 19 250 50 0 empty empty empty 0 -10 0 12 #fcfcfc #000000 #000000;
#X obj 339 721 select 0;
#X obj 338 647 delay 100;
#X obj 70 487 * 0.8;
#X obj 109 487 * 0;
#X obj 31 487 * 0;
#X obj 303 1048 lop~;
#X obj 238 1049 lop~;
#X obj 269 1097 dac~;
#X obj 354 830 r time;
#X obj 356 865 == 1;
#X obj 390 865 == 2;
#X obj 425 865 == 3;
#X obj 390 909 * 4000;
#X floatatom 356 993 5 0 0 0 - - - 0;
#X obj 356 935 +;
#X obj 356 968 +;
#X obj 356 889 * 500;
#X obj 426 931 * 800;
#X obj 107 350 * 0;
#X obj 237 998 r~ lc;
#X obj 303 997 r~ rc;
#X obj 882 836 bng 19 250 50 0 empty empty empty 0 -10 0 12 #fcfcfc #000000 #000000;
#X floatatom 882 735 5 0 0 1 - - - 0;
#X obj 882 980 *~;
#X obj 912 979 *~;
#X obj 882 932 readsf~ 2;
#X floatatom 920 956 5 0 0 1 Vol - - 0;
#X obj 882 710 r num;
#X msg 882 907 start;
#X msg 882 861 open BoatHonking.wav;
#X obj 882 1003 s~ lbh;
#X obj 919 1003 s~ rbh;
#X obj 238 1019 r~ lbh;
#X obj 304 1018 r~ rbh;
#X obj 882 885 delay 100;
#X obj 339 698 random 6;
#X obj 882 761 select 5;
#X obj 881 150 delay 100;
#X obj 955 937 r BoatVol;
#X obj 33 996 r time;
#X floatatom 33 1015 5 0 0 1 - - - 0;
#X obj 33 1033 == 1;
#X obj 97 1033 == 3;
#X obj 65 1033 == 2;
#X obj 33 1071 +;
#X obj 33 1090 +;
#X obj 33 1052 * 0;
#X obj 72 1052 * 0.5;
#X obj 32 1139 r time;
#X floatatom 32 1158 5 0 0 1 - - - 0;
#X obj 32 1176 == 1;
#X obj 96 1176 == 3;
#X obj 64 1176 == 2;
#X obj 32 1214 +;
#X obj 32 1233 +;
#X obj 32 1195 * 0;
#X obj 33 1109 s CanVol;
#X obj 32 1252 s BoatVol;
#X obj 71 1195 * 0.5;
#X obj 110 1195 * 0;
#X obj 111 1052 * 0.5;
#X obj 882 812 select 0;
#X obj 626 934 *~;
#X obj 656 933 *~;
#X floatatom 664 910 5 0 0 1 Vol - - 0;
#X msg 575 885 start;
#X obj 626 809 r on;
#X obj 553 860 delay 100;
#X obj 626 835 metro 102000;
#X obj 699 885 r talkVol;
#X obj 626 886 readsf~ 2;
#X obj 882 558 delay 100;
#X obj 883 368 select 0;
#X obj 883 416 metro 1000;
#X obj 883 392 tgl 19 0 empty empty empty 0 -10 0 12 #fcfcfc #000000 #000000 0 1;
#X obj 250 675 random 10;
#X msg 626 860 open KidsPlaying.wav;
#X obj 882 789 random 15;
#X obj 627 276 select 0;
#X obj 627 254 random 5;
#X obj 627 298 bng 19 250 50 0 empty empty empty 0 -10 0 12 #fcfcfc #000000 #000000;
#X obj 630 1332 *~;
#X obj 660 1331 *~;
#X obj 630 1284 readsf~ 2;
#X floatatom 668 1308 5 0 0 1 Vol - - 0;
#X msg 579 1283 start;
#X obj 630 1142 r on;
#X obj 557 1258 delay 100;
#X obj 630 1213 select 0;
#X obj 630 1191 random 5;
#X obj 630 1235 bng 19 250 50 0 empty empty empty 0 -10 0 12 #fcfcfc #000000 #000000;
#X obj 702 1283 r CanVol;
#X obj 630 1359 s~ lc;
#X obj 667 1359 s~ rc;
#X msg 630 1258 open CanopenNew.wav;
#X obj 630 1168 metro 10000;
#X obj 249 569 random 10;
#X connect 0 0 1 0;
#X connect 1 0 3 0;
#X connect 1 0 6 0;
#X connect 1 0 7 0;
#X connect 1 0 8 0;
#X connect 2 0 11 0;
#X connect 3 0 4 0;
#X connect 4 0 17 0;
#X connect 5 0 15 0;
#X connect 6 0 5 0;
#X connect 7 0 2 0;
#X connect 8 0 9 0;
#X connect 9 0 11 1;
#X connect 10 0 13 0;
#X connect 11 0 12 0;
#X connect 12 0 10 0;
#X connect 13 0 16 0;
#X connect 15 0 18 0;
#X connect 16 0 19 0;
#X connect 17 0 20 0;
#X connect 18 0 52 0;
#X connect 19 0 50 0;
#X connect 20 0 51 0;
#X connect 21 0 61 0;
#X connect 22 0 131 0;
#X connect 23 0 132 0;
#X connect 24 0 22 0;
#X connect 24 1 23 0;
#X connect 25 0 23 1;
#X connect 25 0 22 1;
#X connect 26 0 24 0;
#X connect 27 0 36 0;
#X connect 27 0 275 0;
#X connect 28 0 38 0;
#X connect 28 0 275 0;
#X connect 29 0 39 0;
#X connect 29 0 275 0;
#X connect 30 0 40 0;
#X connect 30 0 275 0;
#X connect 31 0 41 0;
#X connect 31 0 275 0;
#X connect 32 0 44 0;
#X connect 33 0 118 0;
#X connect 34 0 119 0;
#X connect 35 0 33 0;
#X connect 35 1 34 0;
#X connect 36 0 35 0;
#X connect 37 0 34 1;
#X connect 37 0 33 1;
#X connect 38 0 35 0;
#X connect 39 0 35 0;
#X connect 40 0 35 0;
#X connect 41 0 35 0;
#X connect 42 0 32 0;
#X connect 44 0 27 0;
#X connect 44 1 28 0;
#X connect 44 2 29 0;
#X connect 44 3 30 0;
#X connect 44 4 31 0;
#X connect 45 0 46 0;
#X connect 46 0 54 0;
#X connect 46 0 56 0;
#X connect 46 0 55 0;
#X connect 48 0 52 1;
#X connect 49 0 53 1;
#X connect 50 0 48 0;
#X connect 51 0 49 0;
#X connect 52 0 53 0;
#X connect 53 0 47 0;
#X connect 54 0 127 0;
#X connect 55 0 129 0;
#X connect 56 0 128 0;
#X connect 57 0 58 0;
#X connect 58 0 59 0;
#X connect 60 0 37 0;
#X connect 62 0 68 0;
#X connect 64 0 66 0;
#X connect 65 0 35 0;
#X connect 66 0 67 0;
#X connect 67 0 63 0;
#X connect 68 0 334 0;
#X connect 71 0 72 0;
#X connect 72 0 73 0;
#X connect 72 0 75 0;
#X connect 72 0 74 0;
#X connect 73 0 228 0;
#X connect 74 0 227 0;
#X connect 75 0 234 0;
#X connect 76 0 77 0;
#X connect 77 0 78 0;
#X connect 79 0 80 0;
#X connect 80 0 81 0;
#X connect 80 0 83 0;
#X connect 80 0 82 0;
#X connect 81 0 91 0;
#X connect 82 0 256 0;
#X connect 83 0 84 0;
#X connect 84 0 85 1;
#X connect 85 0 86 0;
#X connect 86 0 87 0;
#X connect 88 0 25 0;
#X connect 89 0 24 0;
#X connect 90 0 139 0;
#X connect 91 0 85 0;
#X connect 92 0 113 0;
#X connect 92 0 309 0;
#X connect 93 0 114 0;
#X connect 93 0 309 0;
#X connect 94 0 115 0;
#X connect 94 0 309 0;
#X connect 95 0 116 0;
#X connect 95 0 309 0;
#X connect 96 0 117 0;
#X connect 96 0 309 0;
#X connect 97 0 310 0;
#X connect 98 0 120 0;
#X connect 99 0 121 0;
#X connect 100 0 98 0;
#X connect 100 1 99 0;
#X connect 101 0 99 1;
#X connect 101 0 98 1;
#X connect 102 0 92 0;
#X connect 102 1 93 0;
#X connect 102 2 94 0;
#X connect 102 3 95 0;
#X connect 102 4 96 0;
#X connect 103 0 100 0;
#X connect 104 0 105 0;
#X connect 105 0 106 0;
#X connect 105 0 108 0;
#X connect 105 0 107 0;
#X connect 106 0 242 0;
#X connect 107 0 241 0;
#X connect 108 0 240 0;
#X connect 109 0 110 0;
#X connect 110 0 111 0;
#X connect 112 0 101 0;
#X connect 113 0 100 0;
#X connect 114 0 100 0;
#X connect 115 0 100 0;
#X connect 116 0 100 0;
#X connect 117 0 100 0;
#X connect 122 0 244 0;
#X connect 123 0 243 0;
#X connect 124 0 244 0;
#X connect 125 0 243 0;
#X connect 126 0 102 0;
#X connect 127 0 57 0;
#X connect 128 0 57 1;
#X connect 129 0 58 1;
#X connect 130 0 126 0;
#X connect 133 0 138 0;
#X connect 135 0 97 0;
#X connect 136 0 243 0;
#X connect 137 0 244 0;
#X connect 138 0 313 0;
#X connect 139 0 140 0;
#X connect 139 0 26 0;
#X connect 140 0 89 0;
#X connect 141 0 172 0;
#X connect 142 0 173 0;
#X connect 143 0 141 0;
#X connect 143 1 142 0;
#X connect 144 0 142 1;
#X connect 144 0 141 1;
#X connect 145 0 143 0;
#X connect 146 0 166 0;
#X connect 147 0 145 0;
#X connect 148 0 174 0;
#X connect 149 0 175 0;
#X connect 150 0 148 0;
#X connect 150 1 149 0;
#X connect 151 0 149 1;
#X connect 151 0 148 1;
#X connect 152 0 150 0;
#X connect 153 0 167 0;
#X connect 154 0 152 0;
#X connect 155 0 176 0;
#X connect 156 0 177 0;
#X connect 157 0 155 0;
#X connect 157 1 156 0;
#X connect 158 0 156 1;
#X connect 158 0 155 1;
#X connect 159 0 157 0;
#X connect 160 0 171 0;
#X connect 161 0 159 0;
#X connect 162 0 239 0;
#X connect 163 0 165 0;
#X connect 164 0 163 0;
#X connect 166 0 147 0;
#X connect 166 0 169 0;
#X connect 167 0 154 0;
#X connect 167 0 168 0;
#X connect 168 0 150 0;
#X connect 169 0 143 0;
#X connect 170 0 157 0;
#X connect 171 0 161 0;
#X connect 171 0 170 0;
#X connect 178 0 244 0;
#X connect 179 0 243 0;
#X connect 180 0 244 0;
#X connect 181 0 243 0;
#X connect 182 0 244 0;
#X connect 183 0 243 0;
#X connect 184 0 244 0;
#X connect 185 0 243 0;
#X connect 186 0 144 0;
#X connect 187 0 151 0;
#X connect 188 0 189 0;
#X connect 189 0 190 0;
#X connect 189 0 192 0;
#X connect 189 0 191 0;
#X connect 190 0 230 0;
#X connect 191 0 235 0;
#X connect 192 0 229 0;
#X connect 193 0 194 0;
#X connect 194 0 195 0;
#X connect 196 0 158 0;
#X connect 197 0 198 0;
#X connect 198 0 199 0;
#X connect 198 0 201 0;
#X connect 198 0 200 0;
#X connect 199 0 204 0;
#X connect 200 0 236 0;
#X connect 201 0 231 0;
#X connect 202 0 203 0;
#X connect 203 0 205 0;
#X connect 204 0 202 0;
#X connect 206 0 207 0;
#X connect 207 0 208 0;
#X connect 207 0 210 0;
#X connect 207 0 209 0;
#X connect 208 0 232 0;
#X connect 209 0 226 0;
#X connect 210 0 233 0;
#X connect 211 0 212 0;
#X connect 212 0 213 0;
#X connect 214 0 221 0;
#X connect 215 0 222 0;
#X connect 216 0 214 0;
#X connect 216 1 215 0;
#X connect 217 0 215 1;
#X connect 217 0 214 1;
#X connect 218 0 216 0;
#X connect 219 0 225 0;
#X connect 220 0 218 0;
#X connect 223 0 217 0;
#X connect 224 0 216 0;
#X connect 225 0 317 0;
#X connect 226 0 212 1;
#X connect 227 0 77 1;
#X connect 228 0 76 0;
#X connect 229 0 193 1;
#X connect 230 0 193 0;
#X connect 231 0 202 1;
#X connect 232 0 211 0;
#X connect 233 0 211 1;
#X connect 234 0 76 1;
#X connect 235 0 194 1;
#X connect 236 0 203 1;
#X connect 237 0 273 0;
#X connect 238 0 164 0;
#X connect 239 0 237 0;
#X connect 240 0 109 1;
#X connect 241 0 110 1;
#X connect 242 0 109 0;
#X connect 243 0 245 1;
#X connect 244 0 245 0;
#X connect 246 0 247 0;
#X connect 246 0 248 0;
#X connect 246 0 249 0;
#X connect 247 0 254 0;
#X connect 248 0 250 0;
#X connect 249 0 255 0;
#X connect 250 0 252 1;
#X connect 251 0 243 1;
#X connect 251 0 244 1;
#X connect 252 0 253 0;
#X connect 253 0 251 0;
#X connect 254 0 252 0;
#X connect 255 0 253 1;
#X connect 256 0 86 1;
#X connect 257 0 244 0;
#X connect 258 0 243 0;
#X connect 259 0 267 0;
#X connect 259 0 272 0;
#X connect 260 0 274 0;
#X connect 261 0 268 0;
#X connect 262 0 269 0;
#X connect 263 0 261 0;
#X connect 263 1 262 0;
#X connect 264 0 262 1;
#X connect 264 0 261 1;
#X connect 265 0 260 0;
#X connect 266 0 263 0;
#X connect 267 0 263 0;
#X connect 270 0 244 0;
#X connect 271 0 243 0;
#X connect 272 0 266 0;
#X connect 273 0 238 0;
#X connect 274 0 315 0;
#X connect 275 0 65 0;
#X connect 276 0 264 0;
#X connect 277 0 278 0;
#X connect 278 0 279 0;
#X connect 278 0 281 0;
#X connect 278 0 280 0;
#X connect 279 0 284 0;
#X connect 280 0 298 0;
#X connect 281 0 285 0;
#X connect 282 0 283 0;
#X connect 283 0 294 0;
#X connect 284 0 282 0;
#X connect 285 0 282 1;
#X connect 286 0 287 0;
#X connect 287 0 288 0;
#X connect 287 0 290 0;
#X connect 287 0 289 0;
#X connect 288 0 293 0;
#X connect 289 0 297 0;
#X connect 290 0 296 0;
#X connect 291 0 292 0;
#X connect 292 0 295 0;
#X connect 293 0 291 0;
#X connect 296 0 291 1;
#X connect 297 0 292 1;
#X connect 298 0 283 1;
#X connect 299 0 259 0;
#X connect 300 0 172 0;
#X connect 301 0 173 0;
#X connect 302 0 301 1;
#X connect 302 0 300 1;
#X connect 303 0 308 0;
#X connect 304 0 306 0;
#X connect 305 0 303 0;
#X connect 306 0 305 0;
#X connect 306 0 314 0;
#X connect 307 0 302 0;
#X connect 308 0 300 0;
#X connect 308 1 301 0;
#X connect 309 0 103 0;
#X connect 310 0 312 0;
#X connect 311 0 130 0;
#X connect 312 0 311 0;
#X connect 313 0 134 0;
#X connect 314 0 308 0;
#X connect 315 0 299 0;
#X connect 316 0 318 0;
#X connect 317 0 316 0;
#X connect 318 0 220 0;
#X connect 318 0 224 0;
#X connect 319 0 330 0;
#X connect 320 0 331 0;
#X connect 321 0 319 0;
#X connect 321 1 320 0;
#X connect 322 0 320 1;
#X connect 322 0 319 1;
#X connect 323 0 321 0;
#X connect 324 0 333 0;
#X connect 325 0 323 0;
#X connect 326 0 328 0;
#X connect 327 0 326 0;
#X connect 328 0 325 0;
#X connect 328 0 332 0;
#X connect 329 0 322 0;
#X connect 332 0 321 0;
#X connect 333 0 327 0;
#X connect 334 0 43 0;
