#N canvas -75 99 1920 966 12;
#X obj 736 25 hsl 162 19 0 24 0 0 empty empty Time -2 -10 0 12 #fcfcfc #000000 #000000 0 1;
#X floatatom 733 49 5 0 0 0 - - - 0;
#X floatatom 771 123 5 0 0 0 - - - 0;
#X obj 846 74 > 17;
#X floatatom 846 259 5 0 0 1 Night - - 0;
#X floatatom 733 224 5 0 0 1 Morning - - 0;
#X obj 733 74 < 10;
#X obj 771 74 > 10;
#X obj 808 74 < 17;
#X floatatom 808 123 5 0 0 0 - - - 0;
#X obj 784 192 == 2;
#X obj 784 145 +;
#X floatatom 784 168 5 0 0 0 - - - 0;
#X floatatom 784 241 5 0 0 1 Day - - 0;
#X text 690 76 Logic;
#X obj 733 242 tgl 19 0 empty empty empty 0 -10 0 12 #fcfcfc #000000 #000000 0 1;
#X obj 784 260 tgl 19 0 empty empty empty 0 -10 0 12 #fcfcfc #000000 #000000 0 1;
#X obj 846 278 tgl 19 0 empty empty empty 0 -10 0 12 #fcfcfc #000000 #000000 0 1;
#X obj 514 433 *~;
#X obj 544 432 *~;
#X obj 514 385 readsf~ 2;
#X obj 514 457 dac~;
#X msg 514 361 open Wave.wav;
#X floatatom 733 311 5 0 0 0 - - - 0;
#X floatatom 784 310 5 0 0 0 - - - 0;
#X floatatom 846 309 5 0 0 0 - - - 0;
#X obj 733 363 +;
#X obj 784 363 +;
#X obj 733 390 +;
#X floatatom 552 409 5 0 0 1 Vol - - 0;
#X obj 784 336 * 0.5;
#X obj 846 336 * 0.3;
#X obj 733 336 * 0.5;
#X obj 514 555 *~;
#X obj 544 554 *~;
#X obj 514 507 readsf~ 2;
#X obj 514 579 dac~;
#X obj 733 512 * 0.5;
#X obj 386 260 tgl 19 0 empty empty empty 0 -10 0 12 #fcfcfc #000000 #000000 0 1;
#X obj 386 285 delay 100;
#X msg 386 309 start;
#X msg 514 481 open BackgroundtalkMorning.wav;
#X floatatom 552 531 5 0 0 1 Vol - - 0;
#X connect 0 0 1 0;
#X connect 1 0 3 0;
#X connect 1 0 6 0;
#X connect 1 0 7 0;
#X connect 1 0 8 0;
#X connect 2 0 11 0;
#X connect 3 0 4 0;
#X connect 4 0 17 0;
#X connect 5 0 15 0;
#X connect 6 0 5 0;
#X connect 7 0 2 0;
#X connect 8 0 9 0;
#X connect 9 0 11 1;
#X connect 10 0 13 0;
#X connect 11 0 12 0;
#X connect 12 0 10 0;
#X connect 13 0 16 0;
#X connect 15 0 23 0;
#X connect 16 0 24 0;
#X connect 17 0 25 0;
#X connect 18 0 21 0;
#X connect 19 0 21 1;
#X connect 20 0 18 0;
#X connect 20 1 19 0;
#X connect 22 0 20 0;
#X connect 23 0 32 0;
#X connect 24 0 30 0;
#X connect 25 0 31 0;
#X connect 26 0 28 0;
#X connect 27 0 28 1;
#X connect 28 0 29 0;
#X connect 28 0 37 0;
#X connect 29 0 19 1;
#X connect 29 0 18 1;
#X connect 30 0 27 0;
#X connect 30 0 26 1;
#X connect 31 0 27 1;
#X connect 32 0 26 0;
#X connect 33 0 36 0;
#X connect 34 0 36 1;
#X connect 35 0 33 0;
#X connect 35 1 34 0;
#X connect 37 0 42 0;
#X connect 38 0 39 0;
#X connect 38 0 22 0;
#X connect 38 0 41 0;
#X connect 39 0 40 0;
#X connect 40 0 20 0;
#X connect 40 0 35 0;
#X connect 41 0 35 0;
#X connect 42 0 34 1;
#X connect 42 0 33 1;
