#N canvas 610 95 1920 966 12;
#X obj 730 405 hsl 162 19 0 24 0 0 empty empty Time -2 -10 0 12 #fcfcfc #000000 #000000 0 1;
#X floatatom 727 429 5 0 0 0 - - - 0;
#X floatatom 765 479 5 0 0 0 - - - 0;
#X obj 841 451 > 17;
#X floatatom 841 617 5 0 0 0 Night - - 0;
#X floatatom 727 573 5 0 0 0 Morning - - 0;
#X obj 727 455 < 10;
#X obj 765 455 > 10;
#X obj 803 455 < 17;
#X floatatom 803 479 5 0 0 0 - - - 0;
#X obj 765 551 == 2;
#X obj 765 505 +;
#X floatatom 765 528 5 0 0 0 - - - 0;
#X floatatom 777 598 5 0 0 0 Day - - 0;
#X text 684 456 Logic;
#X obj 727 601 tgl 19 0 empty empty empty 0 -10 0 12 #fcfcfc #000000 #000000 0 1;
#X obj 777 625 tgl 19 0 empty empty empty 0 -10 0 12 #fcfcfc #000000 #000000 0 1;
#X obj 841 644 tgl 19 0 empty empty empty 0 -10 0 12 #fcfcfc #000000 #000000 0 1;
#X obj 478 831 *~;
#X obj 508 830 *~;
#X obj 478 781 readsf~ 2;
#X obj 477 860 dac~;
#X msg 478 726 open Wave.wav;
#X obj 455 749 tgl 19 0 empty empty empty 0 -10 0 12 #fcfcfc #000000 #000000 0 1;
#X floatatom 727 665 5 0 0 0 - - - 0;
#X floatatom 777 676 5 0 0 0 - - - 0;
#X floatatom 841 675 5 0 0 0 - - - 0;
#X obj 593 726 +;
#X obj 631 723 +;
#X obj 611 755 +;
#X floatatom 548 753 5 0 0 0 - - - 0;
#X obj 604 693 * 0.5;
#X obj 651 692 * 0.3;
#X obj 554 692 * 0.5;
#X connect 0 0 1 0;
#X connect 1 0 3 0;
#X connect 1 0 6 0;
#X connect 1 0 7 0;
#X connect 1 0 8 0;
#X connect 2 0 11 0;
#X connect 3 0 4 0;
#X connect 4 0 17 0;
#X connect 5 0 15 0;
#X connect 6 0 5 0;
#X connect 7 0 2 0;
#X connect 8 0 9 0;
#X connect 9 0 11 1;
#X connect 10 0 13 0;
#X connect 11 0 12 0;
#X connect 12 0 10 0;
#X connect 13 0 16 0;
#X connect 15 0 24 0;
#X connect 16 0 25 0;
#X connect 17 0 26 0;
#X connect 18 0 21 0;
#X connect 19 0 21 1;
#X connect 20 0 18 0;
#X connect 20 1 19 0;
#X connect 22 0 20 0;
#X connect 23 0 20 0;
#X connect 24 0 33 0;
#X connect 25 0 31 0;
#X connect 26 0 32 0;
#X connect 27 0 29 0;
#X connect 28 0 29 1;
#X connect 29 0 30 0;
#X connect 30 0 19 1;
#X connect 30 0 18 1;
#X connect 31 0 28 0;
#X connect 31 0 27 1;
#X connect 32 0 28 1;
#X connect 33 0 27 0;
