#N canvas -76 53 1920 966 12;
#X obj 736 25 hsl 162 19 0 24 0 0 empty empty Time -2 -10 0 12 #fcfcfc #000000 #000000 0 1;
#X floatatom 733 49 5 0 0 0 - - - 0;
#X floatatom 771 123 5 0 0 0 - - - 0;
#X obj 846 74 > 17;
#X floatatom 846 259 5 0 0 1 Night - - 0;
#X floatatom 733 224 5 0 0 1 Morning - - 0;
#X obj 733 74 < 10;
#X obj 771 74 > 10;
#X obj 808 74 < 17;
#X floatatom 808 123 5 0 0 0 - - - 0;
#X obj 784 192 == 2;
#X obj 784 145 +;
#X floatatom 784 168 5 0 0 0 - - - 0;
#X floatatom 784 241 5 0 0 1 Day - - 0;
#X text 690 76 Logic;
#X obj 733 242 tgl 19 0 empty empty empty 0 -10 0 12 #fcfcfc #000000 #000000 0 1;
#X obj 784 260 tgl 19 0 empty empty empty 0 -10 0 12 #fcfcfc #000000 #000000 0 1;
#X obj 846 278 tgl 19 0 empty empty empty 0 -10 0 12 #fcfcfc #000000 #000000 0 1;
#X floatatom 733 357 5 0 0 0 - - - 0;
#X floatatom 784 310 5 0 0 0 - - - 0;
#X floatatom 846 309 5 0 0 0 - - - 0;
#X obj 514 555 *~;
#X obj 544 554 *~;
#X obj 514 507 readsf~ 2;
#X obj 514 579 dac~;
#X obj 434 245 tgl 19 0 empty empty empty 0 -10 0 12 #fcfcfc #000000 #000000 0 1;
#X obj 434 270 delay 100;
#X msg 434 294 start;
#X msg 514 481 open BackgroundtalkMorning.wav;
#X floatatom 552 531 5 0 0 1 Vol - - 0;
#X obj 514 676 *~;
#X obj 544 675 *~;
#X obj 514 628 readsf~ 2;
#X obj 514 700 dac~;
#X floatatom 552 652 5 0 0 1 Vol - - 0;
#X msg 514 602 open SeagullsMorning.wav;
#X obj 434 701 random 5;
#X obj 947 107 bng 19 250 50 0 empty empty empty 0 -10 0 12 #fcfcfc #000000 #000000;
#X obj 968 107 bng 19 250 50 0 empty empty empty 0 -10 0 12 #fcfcfc #000000 #000000;
#X obj 990 107 bng 19 250 50 0 empty empty empty 0 -10 0 12 #fcfcfc #000000 #000000;
#X obj 1012 107 bng 19 250 50 0 empty empty empty 0 -10 0 12 #fcfcfc #000000 #000000;
#X obj 1034 107 bng 19 250 50 0 empty empty empty 0 -10 0 12 #fcfcfc #000000 #000000;
#X floatatom 947 50 5 0 0 1 - - - 0;
#X obj 434 676 metro 1000;
#X obj 947 264 *~;
#X obj 977 263 *~;
#X obj 947 216 readsf~ 2;
#X obj 947 288 dac~;
#X msg 947 148 open Wave.wav;
#X floatatom 985 240 5 0 0 1 Vol - - 0;
#X msg 1042 148 open Wave-001.wav;
#X msg 1165 148 open Wave-002.wav;
#X msg 1288 148 open Wave-003.wav;
#X msg 1411 148 open Wave-004.wav;
#X obj 947 25 r num;
#X obj 434 726 s num;
#X obj 947 74 select 0 1 2 3 4;
#X obj 791 526 r time;
#X floatatom 791 552 5 0 0 1 - - - 0;
#X obj 733 428 s time;
#X floatatom 784 357 5 0 0 1 - - - 0;
#X floatatom 846 356 5 0 0 1 - - - 0;
#X obj 784 332 * 2;
#X obj 846 331 * 3;
#X obj 733 380 +;
#X obj 733 404 +;
#X connect 0 0 1 0;
#X connect 1 0 3 0;
#X connect 1 0 6 0;
#X connect 1 0 7 0;
#X connect 1 0 8 0;
#X connect 2 0 11 0;
#X connect 3 0 4 0;
#X connect 4 0 17 0;
#X connect 5 0 15 0;
#X connect 6 0 5 0;
#X connect 7 0 2 0;
#X connect 8 0 9 0;
#X connect 9 0 11 1;
#X connect 10 0 13 0;
#X connect 11 0 12 0;
#X connect 12 0 10 0;
#X connect 13 0 16 0;
#X connect 15 0 18 0;
#X connect 16 0 19 0;
#X connect 17 0 20 0;
#X connect 18 0 64 0;
#X connect 19 0 62 0;
#X connect 20 0 63 0;
#X connect 21 0 24 0;
#X connect 22 0 24 1;
#X connect 23 0 21 0;
#X connect 23 1 22 0;
#X connect 25 0 26 0;
#X connect 25 0 28 0;
#X connect 25 0 35 0;
#X connect 25 0 43 0;
#X connect 26 0 27 0;
#X connect 27 0 23 0;
#X connect 27 0 32 0;
#X connect 28 0 23 0;
#X connect 29 0 22 1;
#X connect 29 0 21 1;
#X connect 30 0 33 0;
#X connect 31 0 33 1;
#X connect 32 0 30 0;
#X connect 32 1 31 0;
#X connect 34 0 31 1;
#X connect 34 0 30 1;
#X connect 35 0 32 0;
#X connect 36 0 55 0;
#X connect 37 0 48 0;
#X connect 38 0 50 0;
#X connect 39 0 51 0;
#X connect 40 0 52 0;
#X connect 41 0 53 0;
#X connect 42 0 56 0;
#X connect 43 0 36 0;
#X connect 44 0 47 0;
#X connect 45 0 47 1;
#X connect 46 0 44 0;
#X connect 46 1 45 0;
#X connect 48 0 46 0;
#X connect 49 0 45 1;
#X connect 49 0 44 1;
#X connect 50 0 46 0;
#X connect 51 0 46 0;
#X connect 52 0 46 0;
#X connect 53 0 46 0;
#X connect 54 0 42 0;
#X connect 56 0 37 0;
#X connect 56 1 38 0;
#X connect 56 2 39 0;
#X connect 56 3 40 0;
#X connect 56 4 41 0;
#X connect 57 0 58 0;
#X connect 60 0 64 1;
#X connect 61 0 65 1;
#X connect 62 0 60 0;
#X connect 63 0 61 0;
#X connect 64 0 65 0;
#X connect 65 0 59 0;
