#N canvas -265 57 1920 966 12;
#X obj 730 405 hsl 162 19 0 24 0 0 empty empty empty -2 -10 0 12 #fcfcfc #000000 #000000 0 1;
#X floatatom 727 429 5 0 0 0 - - - 0;
#X floatatom 765 479 5 0 0 0 - - - 0;
#X obj 841 451 > 17;
#X floatatom 841 617 5 0 0 0 - - - 0;
#X floatatom 727 573 5 0 0 0 - - - 0;
#X obj 727 455 < 10;
#X obj 765 455 > 10;
#X obj 803 455 < 17;
#X floatatom 803 479 5 0 0 0 - - - 0;
#X obj 765 551 == 2;
#X obj 765 505 +;
#X floatatom 765 528 5 0 0 0 - - - 0;
#X floatatom 777 598 5 0 0 0 - - - 0;
#X text 798 618 Night;
#X text 684 456 Logic;
#X text 686 405 Time;
#X text 671 572 Morning;
#X text 748 599 Day;
#X obj 727 596 tgl 19 0 empty empty empty 0 -10 0 12 #fcfcfc #000000 #000000 0 1;
#X obj 777 620 tgl 19 0 empty empty empty 0 -10 0 12 #fcfcfc #000000 #000000 0 1;
#X obj 841 639 tgl 19 0 empty empty empty 0 -10 0 12 #fcfcfc #000000 #000000 0 1;
#X obj 426 437 tgl 19 0 empty empty empty 0 -10 0 12 #fcfcfc #000000 #000000 0 1;
#X obj 412 527 *~;
#X obj 462 524 *~;
#X obj 409 473 readsf~ 2;
#X obj 452 597 dac~;
#X floatatom 497 491 5 0 1 0 - - - 0;
#X msg 370 403 open Wave.wav;
#X connect 0 0 1 0;
#X connect 1 0 3 0;
#X connect 1 0 6 0;
#X connect 1 0 7 0;
#X connect 1 0 8 0;
#X connect 2 0 11 0;
#X connect 3 0 4 0;
#X connect 4 0 21 0;
#X connect 5 0 19 0;
#X connect 6 0 5 0;
#X connect 7 0 2 0;
#X connect 8 0 9 0;
#X connect 9 0 11 1;
#X connect 10 0 13 0;
#X connect 11 0 12 0;
#X connect 12 0 10 0;
#X connect 13 0 20 0;
#X connect 22 0 25 0;
#X connect 23 0 26 0;
#X connect 24 0 26 1;
#X connect 25 0 23 0;
#X connect 25 1 24 0;
#X connect 27 0 24 1;
#X connect 27 0 23 1;
#X connect 28 0 25 0;
